HIERARCHY
ROOT Hips
{
	OFFSET 0.000000 89.005402 0.000000
	CHANNELS 6 Xposition Yposition Zposition Xrotation Yrotation Zrotation
	JOINT Spine
	{
		OFFSET 0.116900 10.681000 0.373400
		CHANNELS 3 Xrotation Yrotation Zrotation
		JOINT Spine1
		{
			OFFSET 0.000000 13.840401 0.053500
			CHANNELS 3 Xrotation Yrotation Zrotation
			JOINT Spine2
			{
				OFFSET 0.000000 14.712700 -0.366200
				CHANNELS 3 Xrotation Yrotation Zrotation
				JOINT Neck
				{
					OFFSET 0.000000 35.415497 -3.314200
					CHANNELS 3 Xrotation Yrotation Zrotation
					JOINT Head
					{
						OFFSET 0.000000 16.899200 1.218300
						CHANNELS 3 Xrotation Yrotation Zrotation
						JOINT HeadTop_End
						{
							OFFSET 0.000000 22.206207 2.192500
							CHANNELS 3 Xrotation Yrotation Zrotation
							End Site
							{
								OFFSET 0.000000 22.314178 0.000000
							}
						}
					}
				}
				JOINT LeftShoulder
				{
					OFFSET 12.896400 26.716293 -4.548400
					CHANNELS 3 Xrotation Yrotation Zrotation
					JOINT LeftArm
					{
						OFFSET 19.027000 -4.857010 -1.718400
						CHANNELS 3 Xrotation Yrotation Zrotation
						JOINT LeftForeArm
						{
							OFFSET 24.179897 0.000000 0.000000
							CHANNELS 3 Xrotation Yrotation Zrotation
							JOINT LeftHand
							{
								OFFSET 27.156403 0.000000 0.000000
								CHANNELS 3 Xrotation Yrotation Zrotation
								JOINT LeftHandIndex1
								{
									OFFSET 16.441200 0.000000 0.000000
									CHANNELS 3 Xrotation Yrotation Zrotation
									JOINT LeftHandIndex2
									{
										OFFSET 4.821899 0.000000 0.000000
										CHANNELS 3 Xrotation Yrotation Zrotation
										JOINT LeftHandIndex3
										{
											OFFSET 6.386497 0.000000 0.000000
											CHANNELS 3 Xrotation Yrotation Zrotation
											JOINT LeftHandIndex4
											{
												OFFSET 5.188988 0.000000 0.000000
												CHANNELS 3 Xrotation Yrotation Zrotation
												End Site
												{
													OFFSET -0.178703 5.185913 0.000177
												}
											}
										}
									}
								}
								JOINT LeftHandThumb1
								{
									OFFSET 6.534897 -5.032593 5.900300
									CHANNELS 3 Xrotation Yrotation Zrotation
									JOINT LeftHandThumb2
									{
										OFFSET 3.818176 -2.204422 2.204423
										CHANNELS 3 Xrotation Yrotation Zrotation
										JOINT LeftHandThumb3
										{
											OFFSET 3.252098 -1.877594 1.877601
											CHANNELS 3 Xrotation Yrotation Zrotation
											JOINT LeftHandThumb4
											{
												OFFSET 5.251778 -3.032120 3.032117
												CHANNELS 3 Xrotation Yrotation Zrotation
												End Site
												{
													OFFSET 0.000023 6.780014 0.000000
												}
											}
										}
									}
								}
							}
						}
					}
				}
				JOINT RightShoulder
				{
					OFFSET -12.896300 26.716293 -4.548400
					CHANNELS 3 Xrotation Yrotation Zrotation
					JOINT RightArm
					{
						OFFSET -19.027000 -4.857010 -1.718400
						CHANNELS 3 Xrotation Yrotation Zrotation
						JOINT RightForeArm
						{
							OFFSET -24.179897 0.000000 0.000000
							CHANNELS 3 Xrotation Yrotation Zrotation
							JOINT RightHand
							{
								OFFSET -27.156403 0.000000 0.000000
								CHANNELS 3 Xrotation Yrotation Zrotation
								JOINT RightHandThumb1
								{
									OFFSET -6.591202 -4.852203 5.988100
									CHANNELS 3 Xrotation Yrotation Zrotation
									JOINT RightHandThumb2
									{
										OFFSET -3.818176 -2.204422 2.204423
										CHANNELS 3 Xrotation Yrotation Zrotation
										JOINT RightHandThumb3
										{
											OFFSET -3.252098 -1.877594 1.877601
											CHANNELS 3 Xrotation Yrotation Zrotation
											JOINT RightHandThumb4
											{
												OFFSET -5.251778 -3.032120 3.032117
												CHANNELS 3 Xrotation Yrotation Zrotation
												End Site
												{
													OFFSET -0.000023 6.780014 0.000000
												}
											}
										}
									}
								}
								JOINT RightHandIndex1
								{
									OFFSET -16.029404 0.000000 0.000000
									CHANNELS 3 Xrotation Yrotation Zrotation
									JOINT RightHandIndex2
									{
										OFFSET -5.213303 0.000000 0.000000
										CHANNELS 3 Xrotation Yrotation Zrotation
										JOINT RightHandIndex3
										{
											OFFSET -6.386528 0.000000 0.000000
											CHANNELS 3 Xrotation Yrotation Zrotation
											JOINT RightHandIndex4
											{
												OFFSET -5.189026 0.000000 0.000000
												CHANNELS 3 Xrotation Yrotation Zrotation
												End Site
												{
													OFFSET 0.236702 5.183624 0.001972
												}
											}
										}
									}
								}
							}
						}
					}
				}
			}
		}
	}
	JOINT LeftUpLeg
	{
		OFFSET 14.073000 -7.904099 -1.463000
		CHANNELS 3 Xrotation Yrotation Zrotation
		JOINT LeftLeg
		{
			OFFSET -0.109806 -34.073280 4.093200
			CHANNELS 3 Xrotation Yrotation Zrotation
			JOINT LeftFoot
			{
				OFFSET 0.109806 -29.899420 -6.319000
				CHANNELS 3 Xrotation Yrotation Zrotation
				JOINT LeftToeBase
				{
					OFFSET 1.551100 -14.988700 20.535801
					CHANNELS 3 Xrotation Yrotation Zrotation
					JOINT LeftToe_End
					{
						OFFSET 0.221200 0.570800 13.248301
						CHANNELS 3 Xrotation Yrotation Zrotation
						End Site
						{
							OFFSET 0.000000 13.262435 0.000000
						}
					}
				}
			}
		}
	}
	JOINT RightUpLeg
	{
		OFFSET -13.839300 -7.904099 -1.463000
		CHANNELS 3 Xrotation Yrotation Zrotation
		JOINT RightLeg
		{
			OFFSET 0.109694 -34.073219 4.093300
			CHANNELS 3 Xrotation Yrotation Zrotation
			JOINT RightFoot
			{
				OFFSET -0.109694 -29.899384 -6.319200
				CHANNELS 3 Xrotation Yrotation Zrotation
				JOINT RightToeBase
				{
					OFFSET -1.551100 -14.988700 20.535801
					CHANNELS 3 Xrotation Yrotation Zrotation
					JOINT RightToe_End
					{
						OFFSET -0.221200 0.570900 13.248299
						CHANNELS 3 Xrotation Yrotation Zrotation
						End Site
						{
							OFFSET 0.000000 13.262440 0.000000
						}
					}
				}
			}
		}
	}
}
MOTION
Frames: 4
Frame Time: 0.033333
1.199354 85.912560 1.334840 -0.893513 1.389453 -4.817750 1.286599 -1.206582 2.472503 0.728743 0.264195 5.944688 0.710789 0.781493 5.852001 1.045307 -0.304693 -2.163990 1.584932 0.544178 -8.140493 -0.000000 0.000000 -0.000000 3.582359 -13.764043 -5.044456 4.032784 3.514250 -83.678335 -0.000005 -14.506748 -0.000012 -27.592518 3.698842 -9.416242 0.339568 4.671355 -7.844279 0.387029 2.823581 -20.566217 0.034628 0.816837 -10.169819 0.000001 -0.000001 0.000002 18.491279 -0.461420 10.916085 1.284047 32.757604 -3.088963 2.117151 9.311164 -0.358660 -0.000000 -0.000005 -0.000001 4.508128 3.324373 5.471577 -1.219627 0.655870 67.345406 0.000002 17.736786 -0.000010 -11.193148 -9.123240 10.139292 18.491281 0.461429 -10.916072 1.284040 -32.757604 3.088937 2.008701 -8.430462 1.114710 -0.000001 -0.000001 -0.000000 0.339566 -4.671355 7.844303 0.387027 -2.823578 20.566219 -0.193125 -0.216348 13.843918 -0.000000 -0.000000 0.000001 -17.834729 11.030586 16.761925 23.663394 8.786553 2.279049 -4.177207 4.012869 -10.862659 -0.432837 0.000002 -0.000001 -0.000000 0.000002 0.000000 2.374802 -4.087012 10.973616 8.085801 -5.303362 3.190546 -9.640652 1.084976 -8.311900 -0.520910 0.000000 -0.000001 -0.000000 0.000000 -0.000000 
0.672211 85.713463 1.887417 -0.893620 1.388066 -4.826513 1.192586 -0.745430 2.526760 0.709350 0.717633 5.835116 0.726248 1.233333 5.735945 0.767550 -1.162770 -2.282829 1.307569 -1.269417 -7.858114 -0.000000 -0.000000 0.000000 3.603873 -13.589131 -5.412472 4.121762 4.074880 -83.367984 -0.000002 -13.936239 -0.000011 -27.288289 3.059748 -10.247505 0.355540 4.791949 -8.716053 0.385377 2.819171 -20.519557 0.033969 0.812154 -10.123210 -0.000003 -0.000003 0.000002 18.394251 -1.083834 11.101366 1.279727 33.103676 -3.073558 2.137854 9.419178 -0.455167 -0.000000 -0.000001 -0.000000 4.488078 3.499386 5.245299 -0.879576 0.571277 67.668433 -0.000001 17.593213 -0.000004 -11.101939 -9.396093 10.121481 18.526499 0.373879 -10.904180 1.300113 -32.699497 3.069150 2.013264 -8.442758 1.119113 -0.000001 -0.000001 -0.000001 0.344527 -4.673228 7.756447 0.386830 -2.823044 20.560582 -0.193147 -0.215758 13.838286 -0.000000 -0.000001 0.000000 -18.699461 10.693227 17.030873 24.208752 7.122003 2.219629 -4.261791 2.962309 -10.715961 -0.386555 -0.000002 -0.000004 -0.000000 -0.000000 0.000000 3.472631 -4.849575 11.233206 8.059493 -8.745426 3.524917 -10.714604 2.799612 -8.030650 -0.520911 0.000003 0.000000 -0.000000 0.000000 -0.000000 
0.101681 85.534012 2.233220 -0.893760 1.386379 -4.832672 1.108405 -0.288814 2.562716 0.693219 1.186480 5.713923 0.746614 1.700329 5.607669 0.502489 -1.918965 -2.430233 0.997902 -2.905654 -7.631073 -0.000001 -0.000000 0.000000 3.626831 -13.421900 -5.758547 4.191273 4.739862 -83.055326 0.000000 -13.565741 0.000010 -27.047204 2.247884 -10.946912 0.370335 4.897801 -9.504497 0.383789 2.814926 -20.474640 0.033339 0.807657 -10.078414 -0.000002 0.000001 -0.000005 18.270915 -1.709674 11.310996 1.273839 33.431857 -3.054748 2.149150 9.520643 -0.499116 -0.000000 0.000001 0.000000 4.467557 3.691332 5.014751 -0.495905 0.463082 68.003303 -0.000003 17.409976 0.000007 -10.965581 -9.733263 10.127431 18.572271 0.294615 -10.882062 1.309756 -32.640084 3.043335 2.018306 -8.456291 1.123962 -0.000001 -0.000003 0.000001 0.350337 -4.677790 7.669905 0.386633 -2.822524 20.555055 -0.193168 -0.215184 13.832795 -0.000000 -0.000000 0.000000 -19.572612 10.325909 17.260146 24.600178 5.716921 2.168466 -4.126921 1.961421 -10.577131 -0.364977 -0.000003 0.000002 0.000000 -0.000002 0.000000 4.413944 -5.605806 11.743971 7.829072 -10.083410 3.843334 -11.548555 2.569258 -8.334507 -0.520912 0.000002 0.000001 0.000000 -0.000001 0.000000 
-0.478183 85.377159 2.342460 -0.893951 1.384171 -4.831684 1.050182 0.160354 2.549135 0.685828 1.700576 5.567408 0.780478 2.211890 5.452505 0.264221 -2.434136 -2.635901 0.613680 -4.146283 -7.507236 0.000000 0.000000 0.000000 3.645603 -13.295757 -6.059196 4.216875 5.643889 -82.750009 -0.000001 -13.711896 -0.000012 -26.897507 1.025196 -11.374260 0.377335 4.966789 -10.075187 0.382459 2.811368 -20.436947 0.032807 0.803867 -10.040727 -0.000002 -0.000002 0.000002 18.074653 -2.326233 11.570631 1.263638 33.714206 -3.026433 2.135446 9.602900 -0.408573 -0.000000 0.000002 0.000000 4.446609 3.900764 4.793746 -0.003274 0.282211 68.339669 -0.000006 17.132327 0.000014 -10.744921 -10.208521 10.176034 18.646971 0.236584 -10.831896 1.301242 -32.576044 3.000454 2.024280 -8.472363 1.129711 0.000002 0.000000 0.000001 0.358602 -4.689653 7.583922 0.386421 -2.821955 20.548998 -0.193190 -0.214552 13.826757 -0.000000 -0.000001 -0.000002 -20.513802 9.875855 17.375962 24.766392 4.343199 2.152004 -3.682883 0.968269 -10.392330 -0.473465 -0.000010 -0.000000 -0.000000 0.000002 0.000000 5.105165 -6.253980 12.421529 7.483996 -10.109202 4.104836 -12.178090 0.953126 -9.074927 -0.520911 -0.000009 -0.000000 0.000000 0.000002 0.000000 
